<svg width="16" height="661" viewBox="0 0 16 661" fill="none" xmlns="http://www.w3.org/2000/svg">
<path d="M8.70711 0.292893C8.31658 -0.0976311 7.68342 -0.0976311 7.29289 0.292893L0.928932 6.65685C0.538408 7.04738 0.538408 7.68054 0.928932 8.07107C1.31946 8.46159 1.95262 8.46159 2.34315 8.07107L8 2.41421L13.6569 8.07107C14.0474 8.46159 14.6805 8.46159 15.0711 8.07107C15.4616 7.68054 15.4616 7.04738 15.0711 6.65685L8.70711 0.292893ZM7.29286 660.707C7.68339 661.098 8.31655 661.098 8.70708 660.707L15.071 654.343C15.4616 653.953 15.4616 653.319 15.071 652.929C14.6805 652.538 14.0474 652.538 13.6568 652.929L7.99997 658.586L2.34312 652.929C1.95259 652.538 1.31943 652.538 0.928904 652.929C0.538379 653.319 0.538379 653.953 0.928904 654.343L7.29286 660.707ZM7 1L6.99997 660L8.99997 660L9 1L7 1Z" fill="#60748D"/>
</svg>
